<?xml version="1.0" standalone="no"?>
<!DOCTYPE svg PUBLIC "-//W3C//DTD SVG 20010904//EN"
 "http://www.w3.org/TR/2001/REC-SVG-20010904/DTD/svg10.dtd">
<svg version="1.0" xmlns="http://www.w3.org/2000/svg"
 width="600.000000pt" height="600.000000pt" viewBox="0 0 600.000000 600.000000"
 preserveAspectRatio="xMidYMid meet">
<metadata>
Created by potrace 1.11, written by Peter Selinger 2001-2013
</metadata>
<g transform="translate(0.000000,600.000000) scale(0.100000,-0.100000)"
fill="#000000" stroke="none">
<path d="M0 3000 l0 -3000 3000 0 3000 0 0 3000 0 3000 -3000 0 -3000 0 0
-3000z m2340 1255 c331 -45 541 -182 620 -406 34 -97 40 -283 12 -376 -39
-129 -128 -236 -248 -300 l-57 -30 65 -22 c133 -44 226 -126 288 -255 22 -46
44 -111 51 -151 14 -81 6 -234 -16 -315 -60 -221 -227 -374 -481 -439 -142
-36 -242 -41 -882 -41 l-623 0 3 142 3 142 85 17 c47 9 102 20 123 23 l37 7 0
843 0 844 -125 24 -125 23 0 143 0 142 583 0 c449 0 606 -4 687 -15z m1845 -7
c-2 -13 -27 -153 -55 -313 -28 -159 -53 -300 -55 -312 l-5 -23 154 0 155 0 6
33 c3 17 30 167 59 332 l52 300 147 3 c134 2 147 1 147 -15 0 -9 -25 -156 -55
-325 -30 -169 -55 -312 -55 -318 0 -6 62 -10 175 -10 l175 0 0 -140 0 -140
-199 0 c-181 0 -200 -2 -205 -17 -6 -21 -76 -418 -76 -433 0 -6 66 -10 180
-10 l180 0 0 -140 0 -140 -205 0 c-204 0 -205 0 -210 -22 -3 -13 -28 -153 -56
-313 -27 -159 -52 -298 -55 -307 -5 -16 -21 -18 -150 -18 -108 0 -144 3 -144
13 0 6 25 153 55 325 30 173 55 315 55 318 0 2 -70 4 -155 4 -85 0 -155 -3
-155 -8 0 -4 -25 -149 -55 -322 -30 -173 -55 -318 -55 -322 0 -5 -67 -8 -150
-8 -82 0 -150 3 -150 8 0 4 25 146 55 317 30 170 55 315 55 322 0 10 -41 13
-180 13 l-180 0 0 140 0 140 207 2 207 3 38 215 c20 118 38 221 38 228 0 9
-44 12 -185 12 l-185 0 0 140 0 140 212 2 212 3 42 240 c24 132 50 282 59 333
l17 92 149 0 149 0 -5 -22z"/>
<path d="M1790 3601 l0 -311 223 0 c122 0 241 5 265 10 109 25 198 95 226 177
20 57 21 164 2 225 -27 91 -97 153 -208 185 -37 11 -120 17 -280 20 l-228 5 0
-311z"/>
<path d="M1790 2621 l0 -341 248 0 c324 0 405 17 491 102 59 58 76 108 76 233
0 100 -3 116 -29 173 -33 72 -85 122 -155 148 -39 15 -90 19 -338 22 l-293 3
0 -340z"/>
<path d="M4020 3314 c0 -9 -69 -404 -75 -431 l-5 -23 155 0 c85 0 155 1 155 3
0 5 70 400 76 430 l6 27 -156 0 c-86 0 -156 -3 -156 -6z"/>
</g>
</svg>
